<?xml version="1.0" encoding="utf-8"?>
<!-- Generator: Adobe Illustrator 16.0.3, SVG Export Plug-In . SVG Version: 6.00 Build 0)  -->
<!DOCTYPE svg PUBLIC "-//W3C//DTD SVG 1.0//EN" "http://www.w3.org/TR/2001/REC-SVG-20010904/DTD/svg10.dtd">
<svg version="1.0" id="Layer_1" xmlns="http://www.w3.org/2000/svg" xmlns:xlink="http://www.w3.org/1999/xlink" x="0px" y="0px"
	 width="595.281px" height="841.89px" viewBox="0 0 595.281 841.89" enable-background="new 0 0 595.281 841.89"
	 xml:space="preserve">
<path fill="#CCCCCC" d="M260.479,68.075c20.554-20.554,53.933-20.554,74.488,0l210.473,210.473
	c15.127,15.127,19.566,37.655,11.346,57.387c-8.223,19.731-27.295,32.557-48.672,32.557H87.167
	c-21.211,0-40.45-12.826-48.672-32.557c-8.221-19.732-3.617-42.259,11.346-57.387L260.314,68.075H260.479z"/>
<path fill="#CCCCCC" d="M260.479,773.98L50.006,563.507c-15.127-15.127-19.567-37.654-11.346-57.387s27.296-32.557,48.672-32.557
	h420.781c21.211,0,40.449,12.824,48.672,32.557c8.221,19.732,3.617,42.26-11.346,57.387L334.966,773.98
	C314.412,794.535,281.033,794.535,260.479,773.98z"/>
</svg>
