<svg width="16" height="16" viewBox="0 0 16 16" fill="none" xmlns="http://www.w3.org/2000/svg">
<path d="M4.64601 4.64599C4.69245 4.59943 4.74763 4.56249 4.80837 4.53728C4.86912 4.51207 4.93424 4.4991 5.00001 4.4991C5.06578 4.4991 5.1309 4.51207 5.19164 4.53728C5.25239 4.56249 5.30756 4.59943 5.35401 4.64599L8.00001 7.29299L10.646 4.64599C10.6925 4.59951 10.7477 4.56263 10.8084 4.53747C10.8692 4.51231 10.9343 4.49936 11 4.49936C11.0658 4.49936 11.1309 4.51231 11.1916 4.53747C11.2523 4.56263 11.3075 4.59951 11.354 4.64599C11.4005 4.69248 11.4374 4.74767 11.4625 4.80841C11.4877 4.86915 11.5006 4.93425 11.5006 4.99999C11.5006 5.06574 11.4877 5.13084 11.4625 5.19158C11.4374 5.25232 11.4005 5.30751 11.354 5.35399L8.70701 7.99999L11.354 10.646C11.4005 10.6925 11.4374 10.7477 11.4625 10.8084C11.4877 10.8691 11.5006 10.9342 11.5006 11C11.5006 11.0657 11.4877 11.1308 11.4625 11.1916C11.4374 11.2523 11.4005 11.3075 11.354 11.354C11.3075 11.4005 11.2523 11.4374 11.1916 11.4625C11.1309 11.4877 11.0658 11.5006 11 11.5006C10.9343 11.5006 10.8692 11.4877 10.8084 11.4625C10.7477 11.4374 10.6925 11.4005 10.646 11.354L8.00001 8.70699L5.35401 11.354C5.30752 11.4005 5.25233 11.4374 5.19159 11.4625C5.13085 11.4877 5.06575 11.5006 5.00001 11.5006C4.93426 11.5006 4.86916 11.4877 4.80842 11.4625C4.74769 11.4374 4.6925 11.4005 4.64601 11.354C4.59952 11.3075 4.56264 11.2523 4.53749 11.1916C4.51233 11.1308 4.49938 11.0657 4.49938 11C4.49938 10.9342 4.51233 10.8691 4.53749 10.8084C4.56264 10.7477 4.59952 10.6925 4.64601 10.646L7.29301 7.99999L4.64601 5.35399C4.59945 5.30755 4.5625 5.25237 4.5373 5.19163C4.51209 5.13088 4.49911 5.06576 4.49911 4.99999C4.49911 4.93423 4.51209 4.8691 4.5373 4.80836C4.5625 4.74761 4.59945 4.69244 4.64601 4.64599Z" fill="black"/>
</svg>
